<mxfile host="app.diagrams.net" modified="2024-05-11T00:40:57.025Z" agent="Mozilla/5.0 (Macintosh; Intel Mac OS X 10_15_7) AppleWebKit/537.36 (KHTML, like Gecko) Chrome/124.0.0.0 Safari/537.36" etag="qJ2Su-AQE2GxvLHfgpvp" version="24.4.0" type="github">
  <diagram id="C5RBs43oDa-KdzZeNtuy" name="Page-1">
    <mxGraphModel dx="954" dy="496" grid="1" gridSize="10" guides="1" tooltips="1" connect="1" arrows="1" fold="1" page="1" pageScale="1" pageWidth="827" pageHeight="1169" math="0" shadow="0">
      <root>
        <mxCell id="WIyWlLk6GJQsqaUBKTNV-0" />
        <mxCell id="WIyWlLk6GJQsqaUBKTNV-1" parent="WIyWlLk6GJQsqaUBKTNV-0" />
        <mxCell id="aZ6WZrl9HWgUNa2LtCc6-0" style="edgeStyle=orthogonalEdgeStyle;rounded=0;orthogonalLoop=1;jettySize=auto;html=1;labelBackgroundColor=none;strokeColor=#E07A5F;fontColor=default;" edge="1" parent="WIyWlLk6GJQsqaUBKTNV-1" source="aZ6WZrl9HWgUNa2LtCc6-1" target="aZ6WZrl9HWgUNa2LtCc6-3">
          <mxGeometry relative="1" as="geometry" />
        </mxCell>
        <mxCell id="aZ6WZrl9HWgUNa2LtCc6-1" value="Start" style="ellipse;whiteSpace=wrap;html=1;strokeWidth=2;labelBackgroundColor=none;fillColor=#F2CC8F;strokeColor=#E07A5F;fontColor=#393C56;" vertex="1" parent="WIyWlLk6GJQsqaUBKTNV-1">
          <mxGeometry x="340" y="10" width="80" height="40" as="geometry" />
        </mxCell>
        <mxCell id="aZ6WZrl9HWgUNa2LtCc6-2" style="edgeStyle=orthogonalEdgeStyle;rounded=0;orthogonalLoop=1;jettySize=auto;html=1;labelBackgroundColor=none;strokeColor=#E07A5F;fontColor=default;" edge="1" parent="WIyWlLk6GJQsqaUBKTNV-1" source="aZ6WZrl9HWgUNa2LtCc6-3" target="aZ6WZrl9HWgUNa2LtCc6-8">
          <mxGeometry relative="1" as="geometry" />
        </mxCell>
        <mxCell id="aZ6WZrl9HWgUNa2LtCc6-3" value="Open app" style="rounded=1;whiteSpace=wrap;html=1;absoluteArcSize=1;arcSize=14;strokeWidth=2;labelBackgroundColor=none;fillColor=#F2CC8F;strokeColor=#E07A5F;fontColor=#393C56;" vertex="1" parent="WIyWlLk6GJQsqaUBKTNV-1">
          <mxGeometry x="330" y="80" width="100" height="40" as="geometry" />
        </mxCell>
        <mxCell id="aZ6WZrl9HWgUNa2LtCc6-4" value="" style="edgeStyle=orthogonalEdgeStyle;rounded=0;orthogonalLoop=1;jettySize=auto;html=1;labelBackgroundColor=none;strokeColor=#E07A5F;fontColor=default;" edge="1" parent="WIyWlLk6GJQsqaUBKTNV-1" source="aZ6WZrl9HWgUNa2LtCc6-8">
          <mxGeometry x="-0.9548" y="10" relative="1" as="geometry">
            <mxPoint x="750" y="850" as="targetPoint" />
            <mxPoint as="offset" />
          </mxGeometry>
        </mxCell>
        <mxCell id="aZ6WZrl9HWgUNa2LtCc6-5" value="False" style="edgeLabel;html=1;align=center;verticalAlign=middle;resizable=0;points=[];labelBackgroundColor=none;fontColor=#393C56;" connectable="0" vertex="1" parent="aZ6WZrl9HWgUNa2LtCc6-4">
          <mxGeometry x="-0.6844" y="-2" relative="1" as="geometry">
            <mxPoint as="offset" />
          </mxGeometry>
        </mxCell>
        <mxCell id="aZ6WZrl9HWgUNa2LtCc6-6" value="" style="edgeStyle=orthogonalEdgeStyle;rounded=0;orthogonalLoop=1;jettySize=auto;html=1;labelBackgroundColor=none;strokeColor=#E07A5F;fontColor=default;" edge="1" parent="WIyWlLk6GJQsqaUBKTNV-1" source="aZ6WZrl9HWgUNa2LtCc6-8">
          <mxGeometry relative="1" as="geometry">
            <mxPoint x="380" y="240" as="targetPoint" />
          </mxGeometry>
        </mxCell>
        <mxCell id="aZ6WZrl9HWgUNa2LtCc6-7" value="True" style="edgeLabel;html=1;align=center;verticalAlign=middle;resizable=0;points=[];labelBackgroundColor=none;fontColor=#393C56;" connectable="0" vertex="1" parent="aZ6WZrl9HWgUNa2LtCc6-6">
          <mxGeometry x="-0.2389" relative="1" as="geometry">
            <mxPoint as="offset" />
          </mxGeometry>
        </mxCell>
        <mxCell id="aZ6WZrl9HWgUNa2LtCc6-8" value="&lt;font style=&quot;font-size: 10px;&quot;&gt;If first install&lt;/font&gt;" style="strokeWidth=2;html=1;shape=mxgraph.flowchart.decision;whiteSpace=wrap;labelBackgroundColor=none;fillColor=#F2CC8F;strokeColor=#E07A5F;fontColor=#393C56;" vertex="1" parent="WIyWlLk6GJQsqaUBKTNV-1">
          <mxGeometry x="330" y="150" width="100" height="60" as="geometry" />
        </mxCell>
        <mxCell id="aZ6WZrl9HWgUNa2LtCc6-9" style="edgeStyle=orthogonalEdgeStyle;rounded=0;orthogonalLoop=1;jettySize=auto;html=1;exitX=0.5;exitY=1;exitDx=0;exitDy=0;labelBackgroundColor=none;strokeColor=#E07A5F;fontColor=default;" edge="1" parent="WIyWlLk6GJQsqaUBKTNV-1" target="aZ6WZrl9HWgUNa2LtCc6-11">
          <mxGeometry relative="1" as="geometry">
            <mxPoint x="380" y="500" as="sourcePoint" />
            <Array as="points" />
          </mxGeometry>
        </mxCell>
        <mxCell id="aZ6WZrl9HWgUNa2LtCc6-10" value="&lt;font style=&quot;font-size: 10px;&quot;&gt;If tap&amp;nbsp;&lt;br&gt;企業・学校の方&lt;br&gt;はこちら&lt;/font&gt;" style="strokeWidth=2;html=1;shape=mxgraph.flowchart.decision;whiteSpace=wrap;labelBackgroundColor=none;fillColor=#F2CC8F;strokeColor=#E07A5F;fontColor=#393C56;" vertex="1" parent="WIyWlLk6GJQsqaUBKTNV-1">
          <mxGeometry x="500" y="430" width="140" height="70" as="geometry" />
        </mxCell>
        <mxCell id="aZ6WZrl9HWgUNa2LtCc6-11" value="&lt;font style=&quot;font-size: 10px;&quot;&gt;If tap 次へ / &lt;br&gt;Swipe&amp;nbsp; to left&lt;/font&gt;" style="strokeWidth=2;html=1;shape=mxgraph.flowchart.decision;whiteSpace=wrap;labelBackgroundColor=none;fillColor=#F2CC8F;strokeColor=#E07A5F;fontColor=#393C56;" vertex="1" parent="WIyWlLk6GJQsqaUBKTNV-1">
          <mxGeometry x="330" y="535" width="100" height="100" as="geometry" />
        </mxCell>
        <mxCell id="aZ6WZrl9HWgUNa2LtCc6-12" value="If tap&amp;nbsp;&lt;br style=&quot;border-color: var(--border-color); font-size: 10px;&quot;&gt;&lt;span style=&quot;font-size: 10px;&quot;&gt;企業・学校の方&lt;/span&gt;&lt;br style=&quot;border-color: var(--border-color); font-size: 10px;&quot;&gt;&lt;span style=&quot;font-size: 10px;&quot;&gt;はこちら&lt;/span&gt;" style="strokeWidth=2;html=1;shape=mxgraph.flowchart.decision;whiteSpace=wrap;labelBackgroundColor=none;fillColor=#F2CC8F;strokeColor=#E07A5F;fontColor=#393C56;" vertex="1" parent="WIyWlLk6GJQsqaUBKTNV-1">
          <mxGeometry x="330" y="1220" width="100" height="60" as="geometry" />
        </mxCell>
        <mxCell id="aZ6WZrl9HWgUNa2LtCc6-13" style="edgeStyle=orthogonalEdgeStyle;rounded=0;orthogonalLoop=1;jettySize=auto;html=1;entryX=0.5;entryY=0;entryDx=0;entryDy=0;entryPerimeter=0;labelBackgroundColor=none;strokeColor=#E07A5F;fontColor=default;" edge="1" parent="WIyWlLk6GJQsqaUBKTNV-1" target="aZ6WZrl9HWgUNa2LtCc6-37">
          <mxGeometry relative="1" as="geometry">
            <mxPoint x="380" y="730" as="sourcePoint" />
          </mxGeometry>
        </mxCell>
        <mxCell id="aZ6WZrl9HWgUNa2LtCc6-14" value="" style="edgeStyle=orthogonalEdgeStyle;rounded=0;orthogonalLoop=1;jettySize=auto;html=1;labelBackgroundColor=none;strokeColor=#E07A5F;fontColor=default;" edge="1" parent="WIyWlLk6GJQsqaUBKTNV-1" source="aZ6WZrl9HWgUNa2LtCc6-21">
          <mxGeometry relative="1" as="geometry">
            <mxPoint x="380" y="430" as="targetPoint" />
          </mxGeometry>
        </mxCell>
        <mxCell id="aZ6WZrl9HWgUNa2LtCc6-15" value="True" style="edgeLabel;html=1;align=center;verticalAlign=middle;resizable=0;points=[];labelBackgroundColor=none;fontColor=#393C56;" connectable="0" vertex="1" parent="aZ6WZrl9HWgUNa2LtCc6-14">
          <mxGeometry x="-0.1991" y="-1" relative="1" as="geometry">
            <mxPoint as="offset" />
          </mxGeometry>
        </mxCell>
        <mxCell id="aZ6WZrl9HWgUNa2LtCc6-16" value="" style="edgeStyle=orthogonalEdgeStyle;rounded=0;orthogonalLoop=1;jettySize=auto;html=1;exitX=1;exitY=0.5;exitDx=0;exitDy=0;labelBackgroundColor=none;strokeColor=#E07A5F;fontColor=default;" edge="1" parent="WIyWlLk6GJQsqaUBKTNV-1" target="aZ6WZrl9HWgUNa2LtCc6-10">
          <mxGeometry relative="1" as="geometry">
            <Array as="points">
              <mxPoint x="440" y="465" />
            </Array>
            <mxPoint x="440" y="465" as="sourcePoint" />
          </mxGeometry>
        </mxCell>
        <mxCell id="aZ6WZrl9HWgUNa2LtCc6-17" style="edgeStyle=orthogonalEdgeStyle;rounded=0;orthogonalLoop=1;jettySize=auto;html=1;exitX=0.5;exitY=1;exitDx=0;exitDy=0;exitPerimeter=0;labelBackgroundColor=none;strokeColor=#E07A5F;fontColor=default;" edge="1" parent="WIyWlLk6GJQsqaUBKTNV-1" source="aZ6WZrl9HWgUNa2LtCc6-11" target="aZ6WZrl9HWgUNa2LtCc6-11">
          <mxGeometry relative="1" as="geometry" />
        </mxCell>
        <mxCell id="aZ6WZrl9HWgUNa2LtCc6-18" value="" style="endArrow=classic;html=1;rounded=0;entryX=0.5;entryY=0;entryDx=0;entryDy=0;exitX=0.5;exitY=1;exitDx=0;exitDy=0;exitPerimeter=0;labelBackgroundColor=none;strokeColor=#E07A5F;fontColor=default;" edge="1" parent="WIyWlLk6GJQsqaUBKTNV-1" source="aZ6WZrl9HWgUNa2LtCc6-10">
          <mxGeometry width="50" height="50" relative="1" as="geometry">
            <mxPoint x="590" y="500" as="sourcePoint" />
            <mxPoint x="570" y="570" as="targetPoint" />
          </mxGeometry>
        </mxCell>
        <mxCell id="aZ6WZrl9HWgUNa2LtCc6-19" value="True" style="edgeLabel;html=1;align=center;verticalAlign=middle;resizable=0;points=[];labelBackgroundColor=none;fontColor=#393C56;" connectable="0" vertex="1" parent="aZ6WZrl9HWgUNa2LtCc6-18">
          <mxGeometry x="-0.0857" relative="1" as="geometry">
            <mxPoint as="offset" />
          </mxGeometry>
        </mxCell>
        <mxCell id="aZ6WZrl9HWgUNa2LtCc6-20" value="" style="edgeStyle=orthogonalEdgeStyle;rounded=0;orthogonalLoop=1;jettySize=auto;html=1;labelBackgroundColor=none;strokeColor=#E07A5F;fontColor=default;" edge="1" parent="WIyWlLk6GJQsqaUBKTNV-1" target="aZ6WZrl9HWgUNa2LtCc6-21">
          <mxGeometry relative="1" as="geometry">
            <mxPoint x="380" y="310" as="sourcePoint" />
          </mxGeometry>
        </mxCell>
        <mxCell id="aZ6WZrl9HWgUNa2LtCc6-21" value="&lt;font style=&quot;font-size: 10px;&quot;&gt;If tap &lt;br&gt;同意する&lt;br&gt;button&lt;/font&gt;" style="strokeWidth=2;html=1;shape=mxgraph.flowchart.decision;whiteSpace=wrap;labelBackgroundColor=none;fillColor=#F2CC8F;strokeColor=#E07A5F;fontColor=#393C56;" vertex="1" parent="WIyWlLk6GJQsqaUBKTNV-1">
          <mxGeometry x="330" y="340" width="100" height="60" as="geometry" />
        </mxCell>
        <mxCell id="aZ6WZrl9HWgUNa2LtCc6-22" value="" style="edgeStyle=orthogonalEdgeStyle;rounded=0;orthogonalLoop=1;jettySize=auto;html=1;labelBackgroundColor=none;strokeColor=#E07A5F;fontColor=default;" edge="1" parent="WIyWlLk6GJQsqaUBKTNV-1" source="aZ6WZrl9HWgUNa2LtCc6-24">
          <mxGeometry relative="1" as="geometry">
            <mxPoint x="190" y="380" as="targetPoint" />
          </mxGeometry>
        </mxCell>
        <mxCell id="aZ6WZrl9HWgUNa2LtCc6-23" value="True" style="edgeLabel;html=1;align=center;verticalAlign=middle;resizable=0;points=[];labelBackgroundColor=none;fontColor=#393C56;" connectable="0" vertex="1" parent="aZ6WZrl9HWgUNa2LtCc6-22">
          <mxGeometry x="-0.1978" relative="1" as="geometry">
            <mxPoint as="offset" />
          </mxGeometry>
        </mxCell>
        <mxCell id="aZ6WZrl9HWgUNa2LtCc6-24" value="&lt;font style=&quot;font-size: 10px;&quot;&gt;If tap &lt;br&gt;privacy agreement&lt;br&gt;link&lt;/font&gt;" style="strokeWidth=2;html=1;shape=mxgraph.flowchart.decision;whiteSpace=wrap;labelBackgroundColor=none;fillColor=#F2CC8F;strokeColor=#E07A5F;fontColor=#393C56;" vertex="1" parent="WIyWlLk6GJQsqaUBKTNV-1">
          <mxGeometry x="140" y="250" width="100" height="60" as="geometry" />
        </mxCell>
        <mxCell id="aZ6WZrl9HWgUNa2LtCc6-25" value="" style="edgeStyle=orthogonalEdgeStyle;rounded=0;orthogonalLoop=1;jettySize=auto;html=1;labelBackgroundColor=none;strokeColor=#E07A5F;fontColor=default;" edge="1" parent="WIyWlLk6GJQsqaUBKTNV-1" source="aZ6WZrl9HWgUNa2LtCc6-26" target="aZ6WZrl9HWgUNa2LtCc6-24">
          <mxGeometry relative="1" as="geometry" />
        </mxCell>
        <mxCell id="aZ6WZrl9HWgUNa2LtCc6-26" value="Display&lt;br style=&quot;border-color: var(--border-color); font-size: 10px;&quot;&gt;PrivacyAgreementScreen" style="shape=display;whiteSpace=wrap;html=1;strokeWidth=2;labelBackgroundColor=none;fillColor=#F2CC8F;strokeColor=#E07A5F;fontColor=#393C56;" vertex="1" parent="WIyWlLk6GJQsqaUBKTNV-1">
          <mxGeometry x="300" y="240" width="160" height="80" as="geometry" />
        </mxCell>
        <mxCell id="aZ6WZrl9HWgUNa2LtCc6-27" value="open&lt;br style=&quot;border-color: var(--border-color); font-size: 10px;&quot;&gt;PrivacyAgreement link in webview" style="shape=display;whiteSpace=wrap;html=1;strokeWidth=2;labelBackgroundColor=none;fillColor=#F2CC8F;strokeColor=#E07A5F;fontColor=#393C56;" vertex="1" parent="WIyWlLk6GJQsqaUBKTNV-1">
          <mxGeometry x="110" y="380" width="160" height="80" as="geometry" />
        </mxCell>
        <mxCell id="aZ6WZrl9HWgUNa2LtCc6-28" value="Display ToB Login Screen" style="shape=display;whiteSpace=wrap;html=1;strokeWidth=2;labelBackgroundColor=none;fillColor=#F2CC8F;strokeColor=#E07A5F;fontColor=#393C56;" vertex="1" parent="WIyWlLk6GJQsqaUBKTNV-1">
          <mxGeometry x="490" y="570" width="160" height="50" as="geometry" />
        </mxCell>
        <mxCell id="aZ6WZrl9HWgUNa2LtCc6-29" value="Display&lt;br style=&quot;border-color: var(--border-color); font-size: 10px;&quot;&gt;WalkthroughScreen&lt;br style=&quot;border-color: var(--border-color); font-size: 10px;&quot;&gt;&lt;span style=&quot;border-color: var(--border-color); font-size: 10px;&quot;&gt;(Screen Index = 1)&lt;/span&gt;" style="shape=display;whiteSpace=wrap;html=1;strokeWidth=2;labelBackgroundColor=none;fillColor=#F2CC8F;strokeColor=#E07A5F;fontColor=#393C56;" vertex="1" parent="WIyWlLk6GJQsqaUBKTNV-1">
          <mxGeometry x="300" y="435" width="160" height="60" as="geometry" />
        </mxCell>
        <mxCell id="aZ6WZrl9HWgUNa2LtCc6-30" value="Display&lt;br style=&quot;border-color: var(--border-color); font-size: 10px;&quot;&gt;&lt;span style=&quot;border-color: var(--border-color); font-size: 10px;&quot;&gt;WalkthroughScreen&lt;/span&gt;&lt;br style=&quot;border-color: var(--border-color); font-size: 10px;&quot;&gt;&lt;span style=&quot;border-color: var(--border-color); font-size: 10px;&quot;&gt;(ScreenIndex = 1)&lt;/span&gt;" style="shape=display;whiteSpace=wrap;html=1;strokeWidth=2;labelBackgroundColor=none;fillColor=#F2CC8F;strokeColor=#E07A5F;fontColor=#393C56;" vertex="1" parent="WIyWlLk6GJQsqaUBKTNV-1">
          <mxGeometry x="300" y="670" width="160" height="60" as="geometry" />
        </mxCell>
        <mxCell id="aZ6WZrl9HWgUNa2LtCc6-31" value="Display HomeScreen" style="shape=display;whiteSpace=wrap;html=1;strokeWidth=2;labelBackgroundColor=none;fillColor=#F2CC8F;strokeColor=#E07A5F;fontColor=#393C56;" vertex="1" parent="WIyWlLk6GJQsqaUBKTNV-1">
          <mxGeometry x="680" y="830" width="130" height="50" as="geometry" />
        </mxCell>
        <mxCell id="aZ6WZrl9HWgUNa2LtCc6-32" value="&lt;font style=&quot;font-size: 10px;&quot;&gt;If tap &lt;br&gt;入力する&lt;br&gt;button&lt;/font&gt;" style="strokeWidth=2;html=1;shape=mxgraph.flowchart.decision;whiteSpace=wrap;labelBackgroundColor=none;fillColor=#F2CC8F;strokeColor=#E07A5F;fontColor=#393C56;" vertex="1" parent="WIyWlLk6GJQsqaUBKTNV-1">
          <mxGeometry x="330" y="1130" width="100" height="60" as="geometry" />
        </mxCell>
        <mxCell id="aZ6WZrl9HWgUNa2LtCc6-33" style="edgeStyle=orthogonalEdgeStyle;rounded=0;orthogonalLoop=1;jettySize=auto;html=1;exitX=0.5;exitY=1;exitDx=0;exitDy=0;exitPerimeter=0;entryX=0.5;entryY=0;entryDx=0;entryDy=0;entryPerimeter=0;labelBackgroundColor=none;strokeColor=#E07A5F;fontColor=default;" edge="1" parent="WIyWlLk6GJQsqaUBKTNV-1" source="aZ6WZrl9HWgUNa2LtCc6-32" target="aZ6WZrl9HWgUNa2LtCc6-12">
          <mxGeometry relative="1" as="geometry">
            <mxPoint x="390" y="1130" as="sourcePoint" />
            <mxPoint x="380" y="1210" as="targetPoint" />
          </mxGeometry>
        </mxCell>
        <mxCell id="aZ6WZrl9HWgUNa2LtCc6-34" value="" style="edgeStyle=orthogonalEdgeStyle;rounded=0;orthogonalLoop=1;jettySize=auto;html=1;labelBackgroundColor=none;strokeColor=#E07A5F;fontColor=default;" edge="1" parent="WIyWlLk6GJQsqaUBKTNV-1" source="aZ6WZrl9HWgUNa2LtCc6-32" target="aZ6WZrl9HWgUNa2LtCc6-36">
          <mxGeometry x="0.0072" y="18" relative="1" as="geometry">
            <mxPoint x="510" y="1160" as="targetPoint" />
            <Array as="points" />
            <mxPoint y="1" as="offset" />
            <mxPoint x="430" y="1170" as="sourcePoint" />
          </mxGeometry>
        </mxCell>
        <mxCell id="aZ6WZrl9HWgUNa2LtCc6-35" value="True" style="edgeLabel;html=1;align=center;verticalAlign=middle;resizable=0;points=[];labelBackgroundColor=none;fontColor=#393C56;" connectable="0" vertex="1" parent="aZ6WZrl9HWgUNa2LtCc6-34">
          <mxGeometry x="0.1409" y="-2" relative="1" as="geometry">
            <mxPoint x="-8" as="offset" />
          </mxGeometry>
        </mxCell>
        <mxCell id="aZ6WZrl9HWgUNa2LtCc6-36" value="Display AttributeQuestionView&lt;br&gt;Screen" style="shape=display;whiteSpace=wrap;html=1;strokeWidth=2;labelBackgroundColor=none;fillColor=#F2CC8F;strokeColor=#E07A5F;fontColor=#393C56;" vertex="1" parent="WIyWlLk6GJQsqaUBKTNV-1">
          <mxGeometry x="510" y="1135" width="160" height="50" as="geometry" />
        </mxCell>
        <mxCell id="aZ6WZrl9HWgUNa2LtCc6-37" value="&lt;font style=&quot;font-size: 10px;&quot;&gt;If tap &lt;br&gt;次へ&lt;/font&gt;" style="strokeWidth=2;html=1;shape=mxgraph.flowchart.decision;whiteSpace=wrap;labelBackgroundColor=none;fillColor=#F2CC8F;strokeColor=#E07A5F;fontColor=#393C56;" vertex="1" parent="WIyWlLk6GJQsqaUBKTNV-1">
          <mxGeometry x="330" y="765" width="100" height="60" as="geometry" />
        </mxCell>
        <mxCell id="aZ6WZrl9HWgUNa2LtCc6-38" style="edgeStyle=orthogonalEdgeStyle;rounded=0;orthogonalLoop=1;jettySize=auto;html=1;exitX=0.5;exitY=1;exitDx=0;exitDy=0;exitPerimeter=0;entryX=0.501;entryY=0.027;entryDx=0;entryDy=0;entryPerimeter=0;labelBackgroundColor=none;strokeColor=#E07A5F;fontColor=default;" edge="1" parent="WIyWlLk6GJQsqaUBKTNV-1" source="aZ6WZrl9HWgUNa2LtCc6-37" target="aZ6WZrl9HWgUNa2LtCc6-40">
          <mxGeometry relative="1" as="geometry">
            <mxPoint x="350" y="830" as="sourcePoint" />
            <mxPoint x="379.84000000000003" y="868" as="targetPoint" />
          </mxGeometry>
        </mxCell>
        <mxCell id="aZ6WZrl9HWgUNa2LtCc6-39" value="True" style="edgeLabel;html=1;align=center;verticalAlign=middle;resizable=0;points=[];labelBackgroundColor=none;fontColor=#393C56;" connectable="0" vertex="1" parent="aZ6WZrl9HWgUNa2LtCc6-38">
          <mxGeometry x="-0.1179" y="2" relative="1" as="geometry">
            <mxPoint as="offset" />
          </mxGeometry>
        </mxCell>
        <mxCell id="aZ6WZrl9HWgUNa2LtCc6-40" value="Display Notification Permission Alert" style="shape=display;whiteSpace=wrap;html=1;strokeWidth=2;labelBackgroundColor=none;fillColor=#F2CC8F;strokeColor=#E07A5F;fontColor=#393C56;" vertex="1" parent="WIyWlLk6GJQsqaUBKTNV-1">
          <mxGeometry x="300" y="860" width="160" height="60" as="geometry" />
        </mxCell>
        <mxCell id="aZ6WZrl9HWgUNa2LtCc6-41" value="&lt;font style=&quot;font-size: 10px;&quot;&gt;If tap either&lt;br&gt;&lt;/font&gt;" style="strokeWidth=2;html=1;shape=mxgraph.flowchart.decision;whiteSpace=wrap;labelBackgroundColor=none;fillColor=#F2CC8F;strokeColor=#E07A5F;fontColor=#393C56;" vertex="1" parent="WIyWlLk6GJQsqaUBKTNV-1">
          <mxGeometry x="330" y="950" width="100" height="60" as="geometry" />
        </mxCell>
        <mxCell id="aZ6WZrl9HWgUNa2LtCc6-42" style="edgeStyle=orthogonalEdgeStyle;rounded=0;orthogonalLoop=1;jettySize=auto;html=1;entryX=0.499;entryY=-0.002;entryDx=0;entryDy=0;entryPerimeter=0;labelBackgroundColor=none;strokeColor=#E07A5F;fontColor=default;" edge="1" parent="WIyWlLk6GJQsqaUBKTNV-1" source="aZ6WZrl9HWgUNa2LtCc6-41" target="aZ6WZrl9HWgUNa2LtCc6-45">
          <mxGeometry relative="1" as="geometry">
            <mxPoint x="379.86" y="1010" as="sourcePoint" />
            <mxPoint x="379.86" y="1047" as="targetPoint" />
          </mxGeometry>
        </mxCell>
        <mxCell id="aZ6WZrl9HWgUNa2LtCc6-43" value="True" style="edgeLabel;html=1;align=center;verticalAlign=middle;resizable=0;points=[];labelBackgroundColor=none;fontColor=#393C56;" connectable="0" vertex="1" parent="aZ6WZrl9HWgUNa2LtCc6-42">
          <mxGeometry x="-0.2595" relative="1" as="geometry">
            <mxPoint y="3" as="offset" />
          </mxGeometry>
        </mxCell>
        <mxCell id="aZ6WZrl9HWgUNa2LtCc6-44" style="edgeStyle=orthogonalEdgeStyle;rounded=0;orthogonalLoop=1;jettySize=auto;html=1;entryX=0.5;entryY=0;entryDx=0;entryDy=0;entryPerimeter=0;labelBackgroundColor=none;strokeColor=#E07A5F;fontColor=default;" edge="1" parent="WIyWlLk6GJQsqaUBKTNV-1" target="aZ6WZrl9HWgUNa2LtCc6-41">
          <mxGeometry relative="1" as="geometry">
            <mxPoint x="380" y="920" as="sourcePoint" />
            <mxPoint x="379.86" y="957" as="targetPoint" />
          </mxGeometry>
        </mxCell>
        <mxCell id="aZ6WZrl9HWgUNa2LtCc6-45" value="Display&lt;br style=&quot;border-color: var(--border-color); font-size: 10px;&quot;&gt;&lt;span style=&quot;border-color: var(--border-color); font-size: 10px;&quot;&gt;WalkthroughScreen&lt;/span&gt;&lt;br style=&quot;border-color: var(--border-color); font-size: 10px;&quot;&gt;&lt;span style=&quot;border-color: var(--border-color); font-size: 10px;&quot;&gt;(ScreenIndex = 2)&lt;/span&gt;" style="shape=display;whiteSpace=wrap;html=1;strokeWidth=2;labelBackgroundColor=none;fillColor=#F2CC8F;strokeColor=#E07A5F;fontColor=#393C56;" vertex="1" parent="WIyWlLk6GJQsqaUBKTNV-1">
          <mxGeometry x="300" y="1040" width="160" height="60" as="geometry" />
        </mxCell>
        <mxCell id="aZ6WZrl9HWgUNa2LtCc6-46" style="edgeStyle=orthogonalEdgeStyle;rounded=0;orthogonalLoop=1;jettySize=auto;html=1;entryX=0.5;entryY=0;entryDx=0;entryDy=0;entryPerimeter=0;labelBackgroundColor=none;strokeColor=#E07A5F;fontColor=default;" edge="1" parent="WIyWlLk6GJQsqaUBKTNV-1" target="aZ6WZrl9HWgUNa2LtCc6-32">
          <mxGeometry relative="1" as="geometry">
            <mxPoint x="379.83" y="1100" as="sourcePoint" />
            <mxPoint x="379.83" y="1130" as="targetPoint" />
          </mxGeometry>
        </mxCell>
        <mxCell id="aZ6WZrl9HWgUNa2LtCc6-47" value="Display AttributeQuestionView&lt;br&gt;Screen" style="shape=display;whiteSpace=wrap;html=1;strokeWidth=2;labelBackgroundColor=none;fillColor=#F2CC8F;strokeColor=#E07A5F;fontColor=#393C56;" vertex="1" parent="WIyWlLk6GJQsqaUBKTNV-1">
          <mxGeometry x="510" y="1225" width="160" height="50" as="geometry" />
        </mxCell>
        <mxCell id="aZ6WZrl9HWgUNa2LtCc6-48" style="edgeStyle=orthogonalEdgeStyle;rounded=0;orthogonalLoop=1;jettySize=auto;html=1;exitX=1;exitY=0.5;exitDx=0;exitDy=0;exitPerimeter=0;entryX=0;entryY=0.5;entryDx=0;entryDy=0;entryPerimeter=0;labelBackgroundColor=none;strokeColor=#E07A5F;fontColor=default;" edge="1" parent="WIyWlLk6GJQsqaUBKTNV-1" source="aZ6WZrl9HWgUNa2LtCc6-12" target="aZ6WZrl9HWgUNa2LtCc6-47">
          <mxGeometry relative="1" as="geometry" />
        </mxCell>
        <mxCell id="aZ6WZrl9HWgUNa2LtCc6-49" value="True" style="edgeLabel;html=1;align=center;verticalAlign=middle;resizable=0;points=[];labelBackgroundColor=none;fontColor=#393C56;" connectable="0" vertex="1" parent="aZ6WZrl9HWgUNa2LtCc6-48">
          <mxGeometry x="-0.1208" y="-2" relative="1" as="geometry">
            <mxPoint as="offset" />
          </mxGeometry>
        </mxCell>
        <mxCell id="aZ6WZrl9HWgUNa2LtCc6-50" style="edgeStyle=orthogonalEdgeStyle;rounded=0;orthogonalLoop=1;jettySize=auto;html=1;exitX=0.5;exitY=1;exitDx=0;exitDy=0;exitPerimeter=0;entryX=0.498;entryY=0.019;entryDx=0;entryDy=0;entryPerimeter=0;labelBackgroundColor=none;strokeColor=#E07A5F;fontColor=default;" edge="1" parent="WIyWlLk6GJQsqaUBKTNV-1" source="aZ6WZrl9HWgUNa2LtCc6-11" target="aZ6WZrl9HWgUNa2LtCc6-30">
          <mxGeometry relative="1" as="geometry" />
        </mxCell>
        <mxCell id="aZ6WZrl9HWgUNa2LtCc6-51" value="True" style="edgeLabel;html=1;align=center;verticalAlign=middle;resizable=0;points=[];labelBackgroundColor=none;fontColor=#393C56;" connectable="0" vertex="1" parent="aZ6WZrl9HWgUNa2LtCc6-50">
          <mxGeometry x="-0.2646" relative="1" as="geometry">
            <mxPoint as="offset" />
          </mxGeometry>
        </mxCell>
      </root>
    </mxGraphModel>
  </diagram>
</mxfile>
